<svg xmlns="http://www.w3.org/2000/svg" viewBox="0 0 18 19" width="20" height="20">
    <path d="M12.5 18.958h-5c-3.674 0-4.791-1.116-4.791-4.791V5.833c0-3.675 1.117-4.791 4.792-4.791h5c3.675 0 4.791 1.116 4.791 4.791v8.334c0 3.675-1.116 4.791-4.791 4.791m-5-16.666c-2.983 0-3.541.566-3.541 3.541v8.334c0 2.975.558 3.541 3.542 3.541h5c2.983 0 3.541-.566 3.541-3.541V5.833c0-2.975-.558-3.541-3.541-3.541z"/>
    <path d="M11.667 5.208H8.334a.63.63 0 0 1-.625-.625.63.63 0 0 1 .625-.625h3.333a.63.63 0 0 1 .625.625.63.63 0 0 1-.625.625"/>
    <path d="M10 16.55a1.917 1.917 0 1 1 .001-3.834 1.917 1.917 0 0 1 0 3.834m0-2.592c-.366 0-.666.3-.666.667s.3.667.667.667c.366 0 .666-.3.666-.667s-.3-.667-.666-.667"/>
</svg>
