<svg
    xmlns="http://www.w3.org/2000/svg"
    viewBox="0 0 24 24"
    width="25"
    height="25"
    fill="none"
    stroke="black"
    stroke-width="1.5"
    stroke-linecap="round"
    stroke-linejoin="round">
    <!-- First Path -->
    <path
        d="M13.567 18.917H10.4c-.467 0-1.483-.142-2.025-.683l-2.525-1.95.767-.992 2.583 2c.208.2.733.367 1.2.367h3.167c.75 0 1.558-.6 1.725-1.275l2.016-6.125c.134-.367.109-.7-.066-.942-.184-.258-.517-.408-.925-.408h-3.334a1.46 1.46 0 0 1-1.108-.5 1.49 1.49 0 0 1-.342-1.209l.417-2.675c.1-.466-.217-.991-.667-1.141-.408-.15-.933.066-1.116.333L6.75 8.8 5.717 8.11l3.416-5.084c.525-.783 1.675-1.158 2.575-.816 1.042.341 1.709 1.491 1.475 2.558l-.408 2.625c-.008.058-.008.142.05.208q.065.065.167.067h3.333c.817 0 1.525.342 1.942.933.408.575.491 1.334.225 2.067L16.5 16.734c-.308 1.208-1.592 2.183-2.933 2.183z" />

    <!-- Second Path -->
    <path
        d="M4.483 18H3.65c-1.542 0-2.292-.726-2.292-2.209V7.624c0-1.483.75-2.208 2.292-2.208h.833c1.542 0 2.292.725 2.292 2.208v8.167c0 1.483-.75 2.208-2.292 2.208M3.65 6.665c-.908 0-1.042.217-1.042.958v8.167c0 .742.134.958 1.042.958h.833c.909 0 1.042-.216 1.042-.958V7.624c0-.741-.133-.958-1.042-.958z" />
</svg>