<svg
    xmlns="http://www.w3.org/2000/svg"
    viewBox="0 0 14 14"
    width="20"
    height="20"
     fill="#326CEC">
    <path
        d="M12.833 13.27H1.167a.44.44 0 0 1-.438-.437.44.44 0 0 1 .438-.437h11.666a.44.44 0 0 1 .438.437.44.44 0 0 1-.438.438" />
    <path
        d="M12.25 13.27H1.75a.44.44 0 0 1-.437-.437V3.5c0-1.762 1.009-2.77 2.77-2.77h5.834c1.761 0 2.77 1.008 2.77 2.77v9.333a.44.44 0 0 1-.437.438m-10.062-.874h9.625V3.5c0-1.295-.601-1.896-1.896-1.896H4.083c-1.295 0-1.896.601-1.896 1.896z" />
    <path
        d="M8.75 13.27h-3.5a.44.44 0 0 1-.437-.437V9.298c0-.542.443-.985.985-.985h2.41c.542 0 .985.443.985.985v3.535a.45.45 0 0 1-.443.438m-3.062-.874h2.625V9.298a.11.11 0 0 0-.111-.11h-2.41a.11.11 0 0 0-.11.11v3.098z" />
    <path
        d="M7 6.854a.44.44 0 0 1-.437-.437V3.5A.44.44 0 0 1 7 3.063a.44.44 0 0 1 .438.437v2.917A.44.44 0 0 1 7 6.854" />
    <path
        d="M8.458 5.396H5.542a.44.44 0 0 1-.438-.438.44.44 0 0 1 .438-.437h2.916a.44.44 0 0 1 .438.437.44.44 0 0 1-.438.438" />
</svg>