<svg xmlns="http://www.w3.org/2000/svg" viewBox="0 0 24 24" width="15" height="15" fill="none"
    stroke="currentColor" stroke-width="2" stroke-linecap="round" stroke-linejoin="round">
    <!-- Phone Icon -->
    <path
        d="M22 16.92v3a2 2 0 0 1-2.18 2A19.86 19.86 0 0 1 3.09 4.18 2 2 0 0 1 5 2h3a2 2 0 0 1 2 1.72 12.36 12.36 0 0 0 .67 2.79 2 2 0 0 1-.45 2.11L9 9c2 3.5 4.5 6 8 8l1.38-1.19a2 2 0 0 1 2.11-.45 12.36 12.36 0 0 0 2.79.67 2 2 0 0 1 1.72 2z"></path>

    <!-- Chat Bubble -->
    <path d="M17 2h5v5"></path>
    <line x1="17" y1="7" x2="22" y2="2"></line>
</svg>