<svg
    xmlns="http://www.w3.org/2000/svg"
    viewBox="0 0 20 20"
    fill="#326CEC"
    with='20'
    height='20'>
    <path
        d="M15.502 8.787a.624.624 0 0 1-.612-.505 3.05 3.05 0 0 0-2.423-2.424.624.624 0 1 1 .239-1.226 4.29 4.29 0 0 1 3.41 3.41.625.625 0 0 1-.614.745M2.74 3.407l.061-.064c1.606-1.606 2.652-2.032 3.768-1.39.321.185.622.443 1.031.859l1.256 1.301c.693.757.85 1.483.625 2.333l-.031.112-.035.112-.168.492c-.359 1.104-.209 1.727 1.07 3.005 1.328 1.329 1.948 1.437 3.138 1.022l.212-.074.256-.083.112-.031c.904-.241 1.667-.05 2.476.76l1.011.977.298.293c.33.336.548.603.71.885.637 1.115.211 2.16-1.441 3.807l-.158.16a2.9 2.9 0 0 1-.816.568c-.568.27-1.24.372-2.02.264-1.923-.268-4.362-1.785-7.452-4.875a43 43 0 0 1-.723-.74l-.447-.477C1.28 8.069.912 5.272 2.629 3.517zm3.849.16c-.272-.267-.47-.43-.643-.53-.385-.222-.8-.128-1.568.533l-.242.216-.13.121-.276.27-.025.031-.188.189c-.453.463-.668 1.029-.483 2.001.304 1.596 1.695 3.76 4.493 6.558 2.916 2.915 5.137 4.297 6.74 4.52.935.13 1.412-.096 1.898-.594l.37-.374a10 10 0 0 0 .448-.497l.171-.216c.437-.582.477-.932.29-1.259a2.5 2.5 0 0 0-.325-.428l-.204-.216-.121-.12-1.276-1.233c-.427-.393-.718-.449-1.16-.33l-.128.036-.529.18c-1.533.495-2.64.255-4.269-1.374-1.687-1.687-1.885-2.813-1.32-4.435l.037-.104.1-.302.05-.193c.087-.42-.013-.711-.463-1.162l-.062-.062z" />
</svg>