<svg xmlns="http://www.w3.org/2000/svg" width="430" height="430" fill="none" viewBox="0 0 430 430"><path fill="url(#ZpN0oA27g8a)" d="M267.715 347.752c10.805 0 19.593-8.789 19.593-19.593v-2.27a5 5 0 0 0-.006-.206c-.041-4.628-.294-8.834-.691-12.014-.215-1.718-.488-3.27-.837-4.46-.167-.568-.41-1.262-.787-1.886-.224-.369-1.281-2.059-3.448-2.059h-.207c-.731 0-1.309.214-1.584.327a6 6 0 0 0-.875.448c-.496.3-1.028.695-1.584 1.148a39 39 0 0 0-2.118 1.882c-2.934-2.184-6.109-3.469-9.519-3.469s-6.586 1.285-9.519 3.469a39 39 0 0 0-2.118-1.882 14.5 14.5 0 0 0-1.584-1.148 6 6 0 0 0-.875-.448 4.2 4.2 0 0 0-1.585-.327h-.206c-2.167 0-3.225 1.69-3.448 2.059-.377.624-.62 1.318-.787 1.886-.349 1.19-.622 2.742-.837 4.46-.397 3.18-.65 7.386-.691 12.014l-.006.137v2.339c0 10.804 8.788 19.593 19.593 19.593z"/><path fill="url(#melBDDLagDb)" fill-rule="evenodd" d="M289.314 95.82v-.004c-.08-2.737-.162-5.514-.228-8.309l-.001-.099v-.036l-.001-.028c-.27-11.53-3.933-20.703-10.1-27.573-6.096-6.791-14.248-10.903-22.844-13.116-17.021-4.38-37.069-1.672-51.16 4.127a6 6 0 0 0-.545.257c-5.104 2.727-10.303 3.77-13.86 3.94l-.101.006c-1.52.098-3.084-.438-4.342-1.532l-.008-.006a97 97 0 0 1-2.25-2.061c-2.95-2.75-7.42-6.92-11.652-9.602-2.903-1.87-6.436-2.671-9.617-2.773-3.196-.102-6.791.48-9.836 2.17l-.065.037c-10.267 5.872-15.472 16.11-17.842 26.982-2.366 10.852-2.094 23.07-.821 34.263 1.279 11.258 3.617 21.848 5.62 29.592a229 229 0 0 0 2.609 9.302 157 157 0 0 0 1.041 3.294l.041.123.022.066.017.052.007.021c.001.002.001.003 3.602-1.221l-3.6 1.224a6 6 0 0 0 3.6 3.698v23.359c0 22.473 11.072 42.347 28.06 54.468v11.023h-2.975c-46.538 0-84.196 37.657-84.196 84.196v31.36c0 11.773 9.495 21.268 21.268 21.268h19.055c18.118 1.443 27.52 5.357 34.649 8.862.961.473 1.913.958 2.868 1.445l.002.001c6.224 3.175 12.555 6.404 22.138 6.404h52.096c9.587 0 15.938-3.232 22.181-6.409.953-.485 1.903-.968 2.861-1.439 7.148-3.508 16.55-7.421 34.615-8.864h21.221c11.799 0 21.268-9.624 21.268-21.268v-31.36c0-46.539-37.658-84.196-84.196-84.196h-5.38l-.053-9.894c17.908-11.993 29.692-32.412 29.692-55.597v-27.438c2.269-2.3 3.776-5.174 4.799-8.148 1.387-4.033 2.063-8.758 2.394-13.736.51-7.685.236-16.99-.053-26.823zM146.587 70.756c1.958-8.983 5.819-15.525 12.035-19.098.676-.366 1.969-.705 3.6-.653 1.657.053 2.91.484 3.509.872l.025.016.026.017c3.199 2.024 6.194 4.815 9 7.431 1.193 1.113 2.353 2.194 3.479 3.17 3.475 3.02 8.078 4.75 12.932 4.452 5.034-.246 11.865-1.645 18.615-5.191 12.111-4.913 29.345-7.098 43.34-3.496 6.963 1.792 12.791 4.926 16.906 9.51 4.018 4.477 6.787 10.758 7.029 19.665l.002.152c.073 3.103.16 6.104.245 8.999.21 7.183.4 13.706.295 19.472a78.3 78.3 0 0 0-6.547-13.235c-7.289-11.794-17.853-21.903-30.364-27.087a6 6 0 0 0-8.083 3.956l-.007.026-.076.244c-.078.243-.213.643-.418 1.183-.41 1.079-1.097 2.713-2.159 4.76-2.125 4.09-5.754 9.833-11.683 16.099-11.232 11.871-30.986 25.897-65.113 33.916a225 225 0 0 1-1.897-6.886c-1.917-7.411-4.118-17.42-5.314-27.942-1.204-10.588-1.345-21.329.623-30.352m123.587 70.783a6 6 0 0 0 0 .373v30.061c0 19.99-10.673 37.472-26.635 47.063a6 6 0 0 0-.288.172c-8.182 4.848-17.735 7.63-27.941 7.63h-1.445c-30.316 0-54.865-24.548-54.865-54.865v-25.104c34.432-8.64 55.431-23.312 68.005-36.601 6.773-7.158 11.029-13.839 13.615-18.817q.511-.986.938-1.878c7.522 4.465 14.239 11.367 19.312 19.575 5.639 9.126 9 19.471 9.315 29.151a6 6 0 0 0-.011.353zm-54.864 97.299c8.899 0 17.39-1.736 25.154-4.888v8.998c0 14.017-11.447 25.464-25.464 25.464h-2.476c-14.017 0-25.464-11.447-25.464-25.464v-9.694c8.205 3.592 17.271 5.584 26.805 5.584zm-39.682 10.626h-3.543c-39.91 0-72.196 32.285-72.196 72.196v31.36a9.233 9.233 0 0 0 9.268 9.268h19.291a6 6 0 0 1 .468.018c20.003 1.564 30.926 5.988 39.24 10.076 1.152.566 2.218 1.103 3.22 1.608l.006.003.001.001c6.171 3.11 9.933 5.006 16.486 5.006h52.096c6.564 0 10.349-1.904 16.547-5.021.999-.502 2.061-1.036 3.208-1.599 8.261-4.055 19.084-8.445 38.761-10.039q.393-.053.801-.053h21.561c5.119 0 9.268-4.199 9.268-9.268v-31.36c0-39.911-32.286-72.196-72.196-72.196h-6.019c-3.096 17.554-18.473 30.948-36.896 30.948h-2.476c-18.423 0-33.8-13.394-36.896-30.948" clip-rule="evenodd"/><defs><linearGradient id="ZpN0oA27g8a" x1="157.039" x2="354.683" y1="112.803" y2="266.611" gradientUnits="userSpaceOnUse"><stop stop-color="#cb5eee"/><stop offset="1" stop-color="#4be1ec"/></linearGradient><linearGradient id="melBDDLagDb" x1="157.039" x2="354.683" y1="112.803" y2="266.611" gradientUnits="userSpaceOnUse"><stop stop-color="#cb5eee"/><stop offset="1" stop-color="#4be1ec"/></linearGradient></defs></svg>